<svg width="38" height="40" viewBox="0 0 38 40" fill="none" xmlns="http://www.w3.org/2000/svg">
<g clip-path="url(#clip0_38_42)">
<path d="M19 3.51911C24.0766 3.51911 24.6777 3.54201 26.6742 3.63361C28.5297 3.71758 29.5316 4.0382 30.1996 4.30537C31.0828 4.65652 31.7211 5.084 32.3816 5.7634C33.0496 6.45042 33.4578 7.09928 33.7992 8.00769C34.059 8.69472 34.3707 9.73289 34.4523 11.6337C34.5414 13.6947 34.5637 14.3131 34.5637 19.5268C34.5637 24.7483 34.5414 25.3666 34.4523 27.42C34.3707 29.3284 34.059 30.359 33.7992 31.046C33.4578 31.9544 33.0422 32.6109 32.3816 33.2903C31.7137 33.9773 31.0828 34.3972 30.1996 34.7483C29.5316 35.0155 28.5223 35.3361 26.6742 35.4201C24.6703 35.5117 24.0691 35.5346 19 35.5346C13.9234 35.5346 13.3223 35.5117 11.3258 35.4201C9.47031 35.3361 8.46836 35.0155 7.80039 34.7483C6.91719 34.3972 6.27891 33.9697 5.61836 33.2903C4.95039 32.6033 4.54219 31.9544 4.20078 31.046C3.94102 30.359 3.6293 29.3208 3.54766 27.42C3.45859 25.359 3.43633 24.7406 3.43633 19.5268C3.43633 14.3054 3.45859 13.6871 3.54766 11.6337C3.6293 9.72526 3.94102 8.69472 4.20078 8.00769C4.54219 7.09928 4.95781 6.44279 5.61836 5.7634C6.28633 5.07637 6.91719 4.65652 7.80039 4.30537C8.46836 4.0382 9.47774 3.71758 11.3258 3.63361C13.3223 3.54201 13.9234 3.51911 19 3.51911ZM19 0C13.8418 0 13.1961 0.0229009 11.1699 0.114505C9.15117 0.206108 7.76328 0.541988 6.56094 1.02291C5.30664 1.52673 4.24531 2.19085 3.19141 3.28246C2.13008 4.36644 1.48438 5.45805 0.994531 6.7405C0.526953 7.98479 0.200391 9.40464 0.111328 11.481C0.0222656 13.5726 0 14.2367 0 19.5421C0 24.8475 0.0222656 25.5116 0.111328 27.5956C0.200391 29.672 0.526953 31.0994 0.994531 32.3361C1.48438 33.6262 2.13008 34.7178 3.19141 35.8018C4.24531 36.8857 5.30664 37.5575 6.55352 38.0537C7.76328 38.5346 9.14375 38.8705 11.1625 38.9621C13.1887 39.0537 13.8344 39.0766 18.9926 39.0766C24.1508 39.0766 24.7965 39.0537 26.8227 38.9621C28.8414 38.8705 30.2293 38.5346 31.4316 38.0537C32.6785 37.5575 33.7398 36.8857 34.7938 35.8018C35.8477 34.7178 36.5008 33.6262 36.9832 32.3437C37.4508 31.0994 37.7773 29.6796 37.8664 27.6032C37.9555 25.5193 37.9777 24.8551 37.9777 19.5498C37.9777 14.2444 37.9555 13.5802 37.8664 11.4963C37.7773 9.41991 37.4508 7.99242 36.9832 6.75577C36.5156 5.45805 35.8699 4.36644 34.8086 3.28246C33.7547 2.19849 32.6934 1.52673 31.4465 1.03054C30.2367 0.549622 28.8563 0.213742 26.8375 0.122138C24.8039 0.0229009 24.1582 0 19 0Z" fill="#14213D"/>
<path d="M19 9.50391C13.6117 9.50391 9.24023 14.0001 9.24023 19.5421C9.24023 25.0842 13.6117 29.5804 19 29.5804C24.3883 29.5804 28.7598 25.0842 28.7598 19.5421C28.7598 14.0001 24.3883 9.50391 19 9.50391ZM19 26.0536C15.5043 26.0536 12.6691 23.1376 12.6691 19.5421C12.6691 15.9467 15.5043 13.0306 19 13.0306C22.4957 13.0306 25.3309 15.9467 25.3309 19.5421C25.3309 23.1376 22.4957 26.0536 19 26.0536Z" fill="#14213D"/>
<path d="M31.4242 9.10671C31.4242 10.4044 30.4 11.4502 29.1457 11.4502C27.884 11.4502 26.8672 10.3968 26.8672 9.10671C26.8672 7.80899 27.8914 6.76318 29.1457 6.76318C30.4 6.76318 31.4242 7.81663 31.4242 9.10671Z" fill="#14213D"/>
</g>
<defs>
<clipPath id="clip0_38_42">
<rect width="38" height="39.0842" fill="white"/>
</clipPath>
</defs>
</svg>
