<svg width="37" height="40" viewBox="0 0 37 40" fill="none" xmlns="http://www.w3.org/2000/svg">
<g clip-path="url(#clip0_38_40)">
<path d="M11.6398 35.4202C25.5987 35.4202 33.2357 23.201 33.2357 12.6078C33.2357 12.2643 33.2285 11.9132 33.214 11.5697C34.6996 10.4347 35.9817 9.029 37 7.41848C35.6164 8.06875 34.1474 8.49343 32.6431 8.67803C34.227 7.67515 35.4129 6.09967 35.9811 4.24365C34.491 5.17644 32.8615 5.83445 31.1624 6.18946C30.0175 4.90449 28.5039 4.05368 26.8553 3.76859C25.2068 3.48349 23.5153 3.77998 22.0424 4.61223C20.5694 5.44447 19.3969 6.76611 18.7063 8.37281C18.0158 9.97951 17.8455 11.7818 18.2218 13.501C15.2047 13.341 12.2531 12.5131 9.5583 11.0709C6.86354 9.62868 4.48578 7.60436 2.57916 5.12915C1.61012 6.89401 1.31359 8.98241 1.74984 10.9699C2.18609 12.9574 3.32239 14.6949 4.92779 15.8292C3.72255 15.7888 2.54371 15.446 1.48867 14.8292V14.9285C1.48759 16.7805 2.09373 18.5759 3.20406 20.0093C4.31439 21.4426 5.86037 22.4256 7.57922 22.7911C6.46275 23.1138 5.29097 23.1608 4.15455 22.9285C4.63958 24.5213 5.58326 25.9144 6.8539 26.9134C8.12453 27.9124 9.65873 28.4675 11.2424 28.5011C8.55382 30.7319 5.23269 31.9419 1.81387 31.9362C1.20757 31.9352 0.601865 31.896 0 31.8186C3.47315 34.1724 7.51336 35.4225 11.6398 35.4202Z" fill="#14213D"/>
</g>
<defs>
<clipPath id="clip0_38_40">
<rect width="37" height="39.0842" fill="white"/>
</clipPath>
</defs>
</svg>
